<?xml version="1.0" encoding="UTF-8"?>
<svg version="1.1" xmlns="http://www.w3.org/2000/svg" width="512" height="512">
<path d="M0 0 C16.77583647 12.62873723 23.93182197 30.96864983 27.54370117 51.01806641 C28.25747854 56.13689531 28.10611812 61.28049658 28.0625 66.4375 C28.05798828 67.45521484 28.05347656 68.47292969 28.04882812 69.52148438 C28.03712437 72.01438509 28.02072848 74.50716074 28 77 C29.03570381 76.99333817 29.03570381 76.99333817 30.09233093 76.98654175 C37.27857392 76.94229553 44.46477821 76.9121281 51.65112305 76.89013672 C54.33313646 76.88120885 57.01505515 76.86729282 59.69702148 76.84912109 C63.5519481 76.82486281 67.40672973 76.81351441 71.26171875 76.8046875 C73.06040657 76.78920364 73.06040657 76.78920364 74.89543152 76.77340698 C76.01621597 76.77325592 77.13700043 76.77310486 78.29174805 76.77294922 C79.27547897 76.768508 80.2592099 76.76406677 81.27275085 76.75949097 C85.20707839 77.10644911 87.89794137 77.92763386 90.75679016 80.7094574 C92.39646666 83.73046701 92.60381045 86.22415593 92.89135742 89.64868164 C92.95031693 90.30768967 93.00927643 90.96669769 93.07002258 91.64567566 C93.26105461 93.81629323 93.43338929 95.98796091 93.60546875 98.16015625 C93.73459189 99.6719245 93.864842 101.18359687 93.99617004 102.69517517 C94.33828515 106.6698682 94.66438159 110.64572234 94.98736572 114.62200928 C95.31922592 118.66880096 95.66746618 122.7141809 96.01367188 126.75976562 C96.51592586 132.66609911 97.01410272 138.57274821 97.49682617 144.48071289 C97.59436691 145.66999893 97.69190765 146.85928497 97.79240417 148.08460999 C97.93254127 150.05263746 98 152.02698947 98 154 C98.71800781 153.80664062 99.43601562 153.61328125 100.17578125 153.4140625 C134.47768449 144.7851902 167.56651588 150.1756477 198.1015625 167.7890625 C228.69511792 186.66226993 247.86643374 215.50685807 257.02734375 249.8515625 C261.47497918 270.30658629 260.63908809 292.8855535 255 313 C254.81808105 313.6698291 254.63616211 314.3396582 254.44873047 315.02978516 C248.90293917 334.90839901 238.22844865 352.18359893 224 367 C223.16855469 367.89460938 222.33710938 368.78921875 221.48046875 369.7109375 C200.3603099 391.789698 169.65313226 405.86819204 139 407 C137.31003906 407.07734375 137.31003906 407.07734375 135.5859375 407.15625 C105.90571015 407.87000296 76.51191461 399.40481841 53 381 C52.51321655 380.5032419 52.02643311 380.0064838 51.52489865 379.49467242 C47.53612558 375.55203488 44.68944989 374.30721561 39.09992492 374.21798742 C38.2288073 374.234302 37.35768968 374.25061658 36.46017456 374.26742554 C35.51850437 374.2610377 34.57683419 374.25464986 33.60662854 374.24806845 C30.46089189 374.23387555 27.31700694 374.2622972 24.17138672 374.29052734 C21.91248235 374.28890521 19.65357854 374.28459034 17.39468384 374.27778625 C12.53548081 374.26877165 7.67680379 374.27849021 2.81765366 374.30268478 C-4.86312408 374.34051669 -12.54349541 374.3349276 -20.22433472 374.32315063 C-30.98964418 374.31099053 -41.75473804 374.31684712 -52.52001953 374.33984375 C-53.20259087 374.34129539 -53.8851622 374.34274702 -54.58841752 374.34424265 C-57.35424629 374.35015619 -60.12007498 374.35610926 -62.88590354 374.36211874 C-70.50417136 374.37842943 -78.12244342 374.38998843 -85.74072266 374.39941406 C-86.42306556 374.40026502 -87.10540846 374.40111598 -87.80842842 374.40199272 C-99.18452624 374.41560801 -110.56056732 374.41324268 -121.93667018 374.40136492 C-129.57493894 374.39482416 -137.21280307 374.40916569 -144.85100961 374.43981528 C-149.59742896 374.45514858 -154.34374627 374.45424307 -159.09018326 374.44907188 C-161.2940821 374.45013537 -163.49798988 374.45811344 -165.70183563 374.4734478 C-168.7062596 374.49346996 -171.70969227 374.48906811 -174.71414185 374.47860718 C-175.58972091 374.49046031 -176.46529997 374.50231345 -177.36741173 374.51452577 C-181.23676669 374.4773707 -183.54545296 374.23984715 -187.01786613 372.40758705 C-191.73582922 366.67694139 -189.84468332 358.53250397 -189.22930908 351.59994507 C-189.13427495 350.45818081 -189.03924081 349.31641656 -188.94132686 348.14005339 C-188.62112514 344.3171351 -188.28957261 340.49528811 -187.95800781 336.67333984 C-187.72505849 333.9318137 -187.49445807 331.19009105 -187.26370239 328.44837952 C-186.70064844 321.77680015 -186.12888075 315.10599535 -185.5537701 308.43544553 C-185.08647311 303.01443152 -184.62192661 297.59318863 -184.15932465 292.171772 C-184.0259861 290.60936056 -183.8926474 289.04694914 -183.75930858 287.48453772 C-183.69294187 286.70686972 -183.62657517 285.92920172 -183.55819735 285.12796803 C-182.3033207 270.42877196 -181.03795763 255.73049227 -179.76949987 241.03246291 C-178.6091933 227.58362261 -177.46254893 214.13365794 -176.32226411 200.68310659 C-175.15110033 186.86988185 -173.97049068 173.05749395 -172.77972674 159.24594462 C-172.11144487 151.49256753 -171.44697085 143.7389086 -170.79245758 135.98435593 C-170.23536955 129.38522291 -169.66941854 122.78692418 -169.09194234 116.18954276 C-168.79754546 112.82335785 -168.50866563 109.45694083 -168.22808456 106.08955956 C-167.92335377 102.44060086 -167.60302221 98.79334276 -167.27862549 95.14608765 C-167.19329913 94.07985212 -167.10797278 93.01361659 -167.02006078 91.91507089 C-166.181856 82.83049607 -166.181856 82.83049607 -163 79 C-159.39160456 76.98502383 -156.28598951 76.75482931 -152.19995117 76.77294922 C-151.05914597 76.77310028 -149.91834076 76.77325134 -148.7429657 76.77340698 C-147.52196671 76.78372955 -146.30096771 76.79405212 -145.04296875 76.8046875 C-143.78486893 76.8075174 -142.5267691 76.81034729 -141.23054504 76.81326294 C-137.89812618 76.82254879 -134.56598453 76.84049524 -131.23364258 76.8626709 C-127.82831203 76.88318983 -124.42295277 76.89227754 -121.01757812 76.90234375 C-114.34497582 76.9243836 -107.67250391 76.9578461 -101 77 C-101.00850983 76.29340744 -101.01701965 75.58681488 -101.02578735 74.85881042 C-101.05990008 71.60772114 -101.08081137 68.35666971 -101.1015625 65.10546875 C-101.11517822 63.99425659 -101.12879395 62.88304443 -101.14282227 61.73815918 C-101.24474794 40.39257133 -94.36292451 20.8786908 -79.5625 5.1875 C-58.33415859 -14.7557176 -23.81498802 -15.40793823 0 0 Z M-65 15 C-65.62261719 15.45632812 -66.24523437 15.91265625 -66.88671875 16.3828125 C-77.56069814 25.54564425 -81.79246636 41.75479815 -84 55 C-84 62.26 -84 69.52 -84 77 C-52.65 77 -21.3 77 11 77 C11 56.32909061 9.99501513 34.07568167 -4.87890625 17.96484375 C-21.08655215 3.02589812 -47.40313855 1.74686832 -65 15 Z " fill="#FEDD55" transform="translate(221,58)"/>
<path d="M0 0 C24.13565897 22.04941721 41.39470495 52.1693545 43.18017578 85.34814453 C43.77018143 101.31636205 43.32628079 116.56829506 39 132 C38.72712158 133.00474365 38.72712158 133.00474365 38.44873047 134.02978516 C32.90293917 153.90839901 22.22844865 171.18359893 8 186 C7.16855469 186.89460937 6.33710938 187.78921875 5.48046875 188.7109375 C-15.6396901 210.789698 -46.34686774 224.86819204 -77 226 C-78.68996094 226.07734375 -78.68996094 226.07734375 -80.4140625 226.15625 C-112.45669215 226.92681424 -142.51727307 216.87191053 -167.3125 196.5625 C-168.199375 195.716875 -169.08625 194.87125 -170 194 C-170 193.34 -170 192.68 -170 192 C-170.55429687 191.77828125 -171.10859375 191.5565625 -171.6796875 191.328125 C-192.61046101 179.34754757 -204.47383204 147.58821021 -210.59082031 125.90576172 C-218.73752835 94.44825335 -211.7514775 60.25036385 -195.96972656 32.43066406 C-177.77868587 1.66780467 -148.36470752 -18.7480758 -114.15429688 -28.22949219 C-73.77691852 -38.09257315 -31.17580404 -27.51855665 0 0 Z " fill="#FE6A51" transform="translate(437,239)"/>
<path d="M0 0 C16.77583647 12.62873723 23.93182197 30.96864983 27.54370117 51.01806641 C28.25747854 56.13689531 28.10611812 61.28049658 28.0625 66.4375 C28.05798828 67.45521484 28.05347656 68.47292969 28.04882812 69.52148438 C28.03712437 72.01438509 28.02072848 74.50716074 28 77 C29.03570381 76.99333817 29.03570381 76.99333817 30.09233093 76.98654175 C37.27857392 76.94229553 44.46477821 76.9121281 51.65112305 76.89013672 C54.33313646 76.88120885 57.01505515 76.86729282 59.69702148 76.84912109 C63.5519481 76.82486281 67.40672973 76.81351441 71.26171875 76.8046875 C73.06040657 76.78920364 73.06040657 76.78920364 74.89543152 76.77340698 C76.01621597 76.77325592 77.13700043 76.77310486 78.29174805 76.77294922 C79.27547897 76.768508 80.2592099 76.76406677 81.27275085 76.75949097 C85.20749421 77.10648578 87.89839276 77.92745116 90.75679016 80.71044922 C92.39450781 83.72654321 92.60352198 86.21353925 92.89135742 89.6328125 C92.95031693 90.29021423 93.00927643 90.94761597 93.07002258 91.62493896 C93.2610787 93.79074681 93.43341637 95.95760661 93.60546875 98.125 C93.73460419 99.63437171 93.86485432 101.14364844 93.99617004 102.65283203 C94.33831478 106.62220634 94.66436755 110.59274902 94.98736572 114.5637207 C95.25348769 117.80328286 95.53067686 121.04185186 95.80852795 124.28042603 C96.38280697 130.97503787 96.94976304 137.67029357 97.49682617 144.3671875 C97.64313728 146.14778564 97.64313728 146.14778564 97.79240417 147.96435547 C97.95248015 150.30512389 98 152.65376448 98 155 C96.82566406 155.40089844 95.65132812 155.80179688 94.44140625 156.21484375 C59.45197228 168.4477853 32.20986313 190.46714534 15.74658203 224.04663086 C1.55761114 253.90662751 -0.45435598 287.77213447 10.1875 319.0625 C17.8777466 340.49295495 29.92916795 357.92916795 46 374 C18.61 374 -8.78 374 -37 374 C-37 275.99 -37 177.98 -37 77 C-21.16 77 -5.32 77 11 77 C9.47175484 44.19002773 9.47175484 44.19002773 -7.375 16.625 C-18.07516806 8.28169715 -31.42042101 5.97791103 -44.734375 7.3984375 C-56.81273877 9.64005523 -65.92841881 14.82604771 -73 25 C-80.13093054 37.75805941 -82.96205094 50.83408675 -83.52734375 65.28515625 C-83.58933205 66.79119164 -83.58933205 66.79119164 -83.65257263 68.32765198 C-84.11255832 80.02732732 -84.34331644 91.7313088 -84.5625 103.4375 C-84.6058708 105.6451872 -84.6494896 107.85286954 -84.69335938 110.06054688 C-84.79841425 115.37364567 -84.90047555 120.68679487 -85 126 C-84.24291748 125.98187256 -83.48583496 125.96374512 -82.70581055 125.94506836 C-81.71363525 125.93096924 -80.72145996 125.91687012 -79.69921875 125.90234375 C-78.71526123 125.88421631 -77.73130371 125.86608887 -76.7175293 125.84741211 C-74 126 -74 126 -70.8125 127.5625 C-68.32178299 130.91208495 -68.41671573 132.91701013 -69 137 C-70.76015131 140.1850357 -71.49890916 140.83296972 -75 142 C-77.67258426 142.13265943 -80.31831655 142.21216457 -82.9921875 142.23828125 C-83.77514191 142.246353 -84.55809631 142.25442474 -85.36477661 142.26274109 C-87.02066852 142.27656166 -88.67658867 142.28729287 -90.33251953 142.29516602 C-92.85894892 142.31239057 -95.38407304 142.3562938 -97.91015625 142.40039062 C-99.52082374 142.41051727 -101.13150231 142.41903346 -102.7421875 142.42578125 C-103.8705452 142.45204338 -103.8705452 142.45204338 -105.021698 142.47883606 C-108.67090241 142.46381397 -110.81150979 142.11592789 -113.94580078 140.18823242 C-116 138 -116 138 -117.125 134.5625 C-117 131 -117 131 -115.25 128.0625 C-111.66077353 125.78472166 -110.41711932 125.77082232 -106.296875 125.87109375 C-105.30526367 125.88970459 -104.31365234 125.90831543 -103.29199219 125.92749023 C-102.15745605 125.96338257 -102.15745605 125.96338257 -101 126 C-101.00888245 125.11289337 -101.01776489 124.22578674 -101.0269165 123.3117981 C-101.1077252 114.87039228 -101.16829647 106.42912004 -101.20724869 97.98741341 C-101.22794896 93.64947875 -101.25593653 89.3118689 -101.30175781 84.97412109 C-101.34585366 80.77246885 -101.3692683 76.57112502 -101.37950897 72.36925888 C-101.386788 70.78200309 -101.40099397 69.19476035 -101.42292023 67.60763931 C-101.7323816 44.23550491 -95.96523121 22.57743262 -79.5625 5.1875 C-58.33415859 -14.7557176 -23.81498802 -15.40793823 0 0 Z " fill="#FEBB4B" transform="translate(221,58)"/>
<path d="M0 0 C40.51597769 2.25088765 72.7059681 15.67960844 100 46 C123.65148074 73.86349817 131.17246008 108.247795 129 144 C128.2766452 150.82299526 126.85008082 157.400821 125 164 C124.72712158 165.00474365 124.72712158 165.00474365 124.44873047 166.02978516 C118.90293917 185.90839901 108.22844865 203.18359893 94 218 C93.16855469 218.89460937 92.33710938 219.78921875 91.48046875 220.7109375 C74.57223805 238.38659888 51.80057585 251.26646417 27.5 254.875 C26.69481934 254.99528564 25.88963867 255.11557129 25.06005859 255.23950195 C19.57556947 255.94040034 14.16925526 256.05658178 8.65039062 256.02783203 C7.91250305 256.02582291 7.17461548 256.02381378 6.41436768 256.02174377 C4.6095714 256.01653868 2.80478351 256.0085534 1 256 C0.86098508 246.81198585 0.75437277 237.62433357 0.68912697 228.43549728 C0.65781196 224.16869721 0.61533804 219.90261649 0.54736328 215.63623047 C0.48217372 211.51889226 0.44629523 207.40224589 0.43073654 203.28443146 C0.41964917 201.71345373 0.39799707 200.14251393 0.36561966 198.57183075 C0.32205562 196.37094824 0.31606498 194.17292392 0.31884766 191.97167969 C0.30552399 190.71925476 0.29220032 189.46682983 0.2784729 188.17645264 C1 185 1 185 3.98007202 182.68927002 C4.97664825 182.13181091 5.97322449 181.57435181 7 181 C8.13019427 178.73961146 8.15268957 177.42881174 8.20532227 174.91748047 C8.22526749 174.07675995 8.24521271 173.23603943 8.26576233 172.36984253 C8.29083107 171.00727829 8.29083107 171.00727829 8.31640625 169.6171875 C8.3475779 168.22308151 8.3475779 168.22308151 8.37937927 166.80081177 C8.44487646 163.8256179 8.50376052 160.85033423 8.5625 157.875 C8.60568506 155.86066772 8.64929934 153.84634459 8.69335938 151.83203125 C8.80055803 146.88811337 8.90182501 141.94410497 9 137 C10.24612061 136.99589111 11.49224121 136.99178223 12.77612305 136.98754883 C17.40772638 136.96574633 22.03848154 136.91144485 26.66967773 136.84741211 C28.67252461 136.82424189 30.67549317 136.80983868 32.6784668 136.80444336 C35.56115454 136.79514667 38.44193119 136.75414094 41.32421875 136.70703125 C42.66355721 136.71293022 42.66355721 136.71293022 44.029953 136.71894836 C48.49237617 136.61465753 50.43056242 136.43408279 54.08129883 133.65112305 C56.39991909 130.44742061 56.50516881 128.87296085 56 125 C55.67 124.01 55.34 123.02 55 122 C52.26256877 120.9700507 49.59464762 120.85591125 46.69042969 120.79467773 C45.84986023 120.77473251 45.00929077 120.75478729 44.14324951 120.73423767 C43.24519592 120.71752518 42.34714233 120.70081268 41.421875 120.68359375 C40.4953009 120.66281265 39.56872681 120.64203156 38.61407471 120.62062073 C35.65945728 120.55533039 32.70475232 120.49633569 29.75 120.4375 C27.74478268 120.39429527 25.73957415 120.35068035 23.734375 120.30664062 C18.82300596 120.19967001 13.91154903 120.09834482 9 120 C8.97494385 118.71311279 8.9498877 117.42622559 8.92407227 116.1003418 C8.82998428 111.33119546 8.72976687 106.56219429 8.62768555 101.79321289 C8.58434197 99.72814324 8.54266648 97.66303788 8.50268555 95.59790039 C8.44496917 92.63156365 8.38127849 89.66540655 8.31640625 86.69921875 C8.29969376 85.7741301 8.28298126 84.84904144 8.26576233 83.8959198 C8.24581711 83.03525406 8.22587189 82.17458832 8.20532227 81.2878418 C8.18977798 80.53061325 8.1742337 79.7733847 8.15821838 78.99320984 C8.06367677 76.79075185 8.06367677 76.79075185 7 74 C5.02 73.34 3.04 72.68 1 72 C0.67 48.24 0.34 24.48 0 0 Z " fill="#FE382D" transform="translate(351,207)"/>
<path d="M0 0 C16.73725075 12.59969016 24.22075431 31.15576103 27.54051208 51.27589417 C27.99999358 54.99994793 28.12021146 58.56136884 28.11352539 62.31225586 C28.11367142 63.00578156 28.11381744 63.69930725 28.1139679 64.41384888 C28.1132774 66.68088023 28.10552592 68.94782695 28.09765625 71.21484375 C28.095789 72.79667618 28.09436655 74.37850919 28.09336853 75.96034241 C28.08956755 80.10476301 28.07975814 84.24914805 28.06866455 88.39355469 C28.0583982 92.63020344 28.05385976 96.86685799 28.04882812 101.10351562 C28.03813351 109.40235999 28.02108643 117.70117556 28 126 C28.7628833 125.98259766 29.5257666 125.96519531 30.31176758 125.94726562 C31.30845459 125.93373047 32.3051416 125.92019531 33.33203125 125.90625 C34.32178955 125.88884766 35.31154785 125.87144531 36.33129883 125.85351562 C39 126 39 126 41.6875 127.5 C43.24641565 130.46936314 43.51894417 132.68820078 43.62890625 136 C42.6157147 139.222075 40.81896486 140.20811407 38 142 C35.10914318 142.57630165 32.28036292 142.56127988 29.33984375 142.53125 C28.51295547 142.5350769 27.6860672 142.53890381 26.8341217 142.54284668 C25.09179461 142.5455607 23.34942642 142.53823522 21.60717773 142.52148438 C18.9422733 142.50003841 16.28005613 142.52131552 13.61523438 142.546875 C11.9192649 142.54423216 10.22329708 142.5391081 8.52734375 142.53125 C7.73247055 142.53934692 6.93759735 142.54744385 6.11863708 142.55578613 C2.56842024 142.49564838 0.43004605 142.31703286 -2.46655273 140.18164062 C-4.67730626 137.03639408 -5.06721837 134.83144681 -5 131 C-3.25 128.0625 -3.25 128.0625 0 126 C2.72363281 125.79858398 2.72363281 125.79858398 5.703125 125.87109375 C6.69473633 125.88970459 7.68634766 125.90831543 8.70800781 125.92749023 C9.46436523 125.95141846 10.22072266 125.97534668 11 126 C10.93827509 117.41001134 10.86081195 108.8203588 10.76428509 100.23069763 C10.7199165 96.24040824 10.68059106 92.25021314 10.65356445 88.25976562 C10.62719134 84.3951137 10.58656191 80.53083147 10.53681374 76.66641235 C10.52037107 75.20599026 10.50871844 73.74550458 10.50238609 72.28500366 C10.41262985 53.45295297 7.59001275 32.68341018 -5.65625 18.1875 C-15.55286785 9.19057468 -27.94404404 6.92320026 -41 7 C-53.4304117 8.32625732 -63.13735803 12.71498086 -71.18359375 22.38671875 C-80.04608002 35.13726351 -82.93269522 50.08364094 -83.52734375 65.28515625 C-83.58933205 66.79119164 -83.58933205 66.79119164 -83.65257263 68.32765198 C-84.11255832 80.02732732 -84.34331644 91.7313088 -84.5625 103.4375 C-84.6058708 105.6451872 -84.6494896 107.85286954 -84.69335938 110.06054688 C-84.79841425 115.37364567 -84.90047555 120.68679487 -85 126 C-84.24291748 125.98187256 -83.48583496 125.96374512 -82.70581055 125.94506836 C-81.71363525 125.93096924 -80.72145996 125.91687012 -79.69921875 125.90234375 C-78.71526123 125.88421631 -77.73130371 125.86608887 -76.7175293 125.84741211 C-74 126 -74 126 -70.8125 127.5625 C-68.32178299 130.91208495 -68.41671573 132.91701013 -69 137 C-70.76015131 140.1850357 -71.49890916 140.83296972 -75 142 C-77.67258426 142.13265943 -80.31831655 142.21216457 -82.9921875 142.23828125 C-83.77514191 142.246353 -84.55809631 142.25442474 -85.36477661 142.26274109 C-87.02066852 142.27656166 -88.67658867 142.28729287 -90.33251953 142.29516602 C-92.85894892 142.31239057 -95.38407304 142.3562938 -97.91015625 142.40039062 C-99.52082374 142.41051727 -101.13150231 142.41903346 -102.7421875 142.42578125 C-103.8705452 142.45204338 -103.8705452 142.45204338 -105.021698 142.47883606 C-108.67090241 142.46381397 -110.81150979 142.11592789 -113.94580078 140.18823242 C-116 138 -116 138 -117.125 134.5625 C-117 131 -117 131 -115.25 128.0625 C-111.66077353 125.78472166 -110.41711932 125.77082232 -106.296875 125.87109375 C-105.30526367 125.88970459 -104.31365234 125.90831543 -103.29199219 125.92749023 C-102.15745605 125.96338257 -102.15745605 125.96338257 -101 126 C-101.00888245 125.11289337 -101.01776489 124.22578674 -101.0269165 123.3117981 C-101.1077252 114.87039228 -101.16829647 106.42912004 -101.20724869 97.98741341 C-101.22794896 93.64947875 -101.25593653 89.3118689 -101.30175781 84.97412109 C-101.34585366 80.77246885 -101.3692683 76.57112502 -101.37950897 72.36925888 C-101.386788 70.78200309 -101.40099397 69.19476035 -101.42292023 67.60763931 C-101.7323816 44.23550491 -95.96523121 22.57743262 -79.5625 5.1875 C-58.33415859 -14.7557176 -23.81498802 -15.40793823 0 0 Z " fill="#343B41" transform="translate(221,58)"/>
<path d="M0 0 C0 5.28 0 10.56 0 16 C-1.18335938 16.21914062 -2.36671875 16.43828125 -3.5859375 16.6640625 C-17.27245635 19.34488222 -27.7075798 23.06961482 -36 35 C-43.13093054 47.75805941 -45.96205094 60.83408675 -46.52734375 75.28515625 C-46.58933205 76.79119164 -46.58933205 76.79119164 -46.65257263 78.32765198 C-47.11255832 90.02732732 -47.34331644 101.7313088 -47.5625 113.4375 C-47.6058708 115.6451872 -47.6494896 117.85286954 -47.69335938 120.06054688 C-47.79841425 125.37364567 -47.90047555 130.68679487 -48 136 C-47.24291748 135.98187256 -46.48583496 135.96374512 -45.70581055 135.94506836 C-44.71363525 135.93096924 -43.72145996 135.91687012 -42.69921875 135.90234375 C-41.71526123 135.88421631 -40.73130371 135.86608887 -39.7175293 135.84741211 C-37 136 -37 136 -33.8125 137.5625 C-31.32178299 140.91208495 -31.41671573 142.91701013 -32 147 C-33.76015131 150.1850357 -34.49890916 150.83296972 -38 152 C-40.67258426 152.13265943 -43.31831655 152.21216457 -45.9921875 152.23828125 C-46.77514191 152.246353 -47.55809631 152.25442474 -48.36477661 152.26274109 C-50.02066852 152.27656166 -51.67658867 152.28729287 -53.33251953 152.29516602 C-55.85894892 152.31239057 -58.38407304 152.3562938 -60.91015625 152.40039062 C-62.52082374 152.41051727 -64.13150231 152.41903346 -65.7421875 152.42578125 C-66.8705452 152.45204338 -66.8705452 152.45204338 -68.021698 152.47883606 C-71.67090241 152.46381397 -73.81150979 152.11592789 -76.94580078 150.18823242 C-79 148 -79 148 -80.125 144.5625 C-80 141 -80 141 -78.25 138.0625 C-74.66077353 135.78472166 -73.41711932 135.77082232 -69.296875 135.87109375 C-68.30526367 135.88970459 -67.31365234 135.90831543 -66.29199219 135.92749023 C-65.15745605 135.96338257 -65.15745605 135.96338257 -64 136 C-64.00888245 135.11289337 -64.01776489 134.22578674 -64.0269165 133.3117981 C-64.1077252 124.87039228 -64.16829647 116.42912004 -64.20724869 107.98741341 C-64.22794896 103.64947875 -64.25593653 99.3118689 -64.30175781 94.97412109 C-64.34585366 90.77246885 -64.3692683 86.57112502 -64.37950897 82.36925888 C-64.386788 80.78200309 -64.40099397 79.19476035 -64.42292023 77.60763931 C-64.7323816 54.23550491 -58.96523121 32.57743262 -42.5625 15.1875 C-30.5158674 3.87014785 -16.16578572 -0.17571506 0 0 Z " fill="#545A64" transform="translate(184,48)"/>
<path d="M0 0 C3.44787068 1.27421308 4.70893762 2.07312751 6.875 5.0625 C7.43455204 8.33046538 7.33983913 11.55246572 7.265625 14.859375 C7.25996521 15.80814514 7.25430542 16.75691528 7.24847412 17.73443604 C7.22610609 20.76097336 7.17590858 23.78632129 7.125 26.8125 C7.10493557 28.8658683 7.0866847 30.91925519 7.0703125 32.97265625 C7.02623981 38.00306156 6.95720891 43.03257921 6.875 48.0625 C8.12635742 48.05202637 9.37771484 48.04155273 10.66699219 48.03076172 C15.3111688 47.99455235 19.95533293 47.97159604 24.59960938 47.95263672 C26.60939635 47.9425813 28.6191687 47.92893515 30.62890625 47.91162109 C33.51826588 47.88735276 36.40743202 47.87601229 39.296875 47.8671875 C40.19492859 47.85686493 41.09298218 47.84654236 42.01824951 47.83590698 C42.85881897 47.83575592 43.69938843 47.83560486 44.56542969 47.83544922 C45.30267273 47.831008 46.03991577 47.82656677 46.79949951 47.82199097 C49.24965993 48.1059156 50.79291235 48.74601768 52.875 50.0625 C55.21668764 53.57503146 55.37123677 54.92719356 54.875 59.0625 C53.07506226 61.76240662 51.791227 63.6043865 48.875 65.0625 C47.51654807 65.15152493 46.15384026 65.18010132 44.79248047 65.17602539 C43.53139969 65.17591209 43.53139969 65.17591209 42.24484253 65.17579651 C40.88227829 65.16805458 40.88227829 65.16805458 39.4921875 65.16015625 C38.56278351 65.1587413 37.63337952 65.15732635 36.67581177 65.15586853 C33.70050876 65.15026053 30.72528036 65.13770668 27.75 65.125 C25.73567817 65.11998603 23.72135516 65.11542295 21.70703125 65.11132812 C16.76299198 65.1002885 11.81900865 65.08301849 6.875 65.0625 C6.9064209 66.93168091 6.9064209 66.93168091 6.93847656 68.83862305 C7.01097351 73.46969067 7.05683513 78.1007083 7.09472656 82.73217773 C7.11481991 84.73519328 7.14209965 86.73815032 7.17675781 88.7409668 C7.22537611 91.62303108 7.24799152 94.50431866 7.265625 97.38671875 C7.28627014 98.27961105 7.30691528 99.17250336 7.32818604 100.092453 C7.32969517 104.29080242 7.23516361 106.48165516 4.97558594 110.12573242 C2.72430267 112.2014449 1.88847877 112.74635701 -1.125 112.6875 C-1.785 112.70039063 -2.445 112.71328125 -3.125 112.7265625 C-6.37811255 111.64642747 -7.33420164 109.96345524 -9.125 107.0625 C-9.67175681 103.75829496 -9.59103363 100.50925178 -9.515625 97.16796875 C-9.50996521 96.22061356 -9.50430542 95.27325836 -9.49847412 94.29719543 C-9.47614084 91.28094265 -9.4259498 88.26589178 -9.375 85.25 C-9.35493107 83.20118907 -9.33668099 81.15235946 -9.3203125 79.10351562 C-9.27628594 74.08938291 -9.2072791 69.07614501 -9.125 64.0625 C-10.43694336 64.08868408 -11.74888672 64.11486816 -13.10058594 64.1418457 C-17.96825098 64.23234847 -22.8358417 64.28974994 -27.70410156 64.3371582 C-29.81099961 64.36230212 -31.91781043 64.39642207 -34.02441406 64.43969727 C-37.0529532 64.50035368 -40.0803393 64.52871083 -43.109375 64.55078125 C-44.05117615 64.57658768 -44.99297729 64.6023941 -45.96331787 64.62898254 C-52.49645601 64.63178432 -52.49645601 64.63178432 -55.71191406 61.71948242 C-57.47454534 58.40526056 -57.89465109 56.75682521 -57.125 53.0625 C-53.77958724 49.40192016 -51.58286244 47.77364358 -46.58837891 47.49487305 C-44.84257326 47.49565755 -43.09663113 47.52348944 -41.3515625 47.57421875 C-39.9659462 47.58483086 -39.9659462 47.58483086 -38.55233765 47.59565735 C-35.61738268 47.62352723 -32.68437307 47.68625112 -29.75 47.75 C-27.75393391 47.77509248 -25.75783775 47.79790398 -23.76171875 47.81835938 C-18.88206904 47.87332961 -14.00386373 47.95955034 -9.125 48.0625 C-9.1564209 46.78608643 -9.1878418 45.50967285 -9.22021484 44.19458008 C-9.32894318 39.45183628 -9.39774364 34.70920222 -9.45458984 29.96557617 C-9.48473452 27.91395534 -9.52565836 25.8624631 -9.57763672 23.8112793 C-9.65055446 20.85954059 -9.68447901 17.90950726 -9.7109375 14.95703125 C-9.74190521 14.04226517 -9.77287292 13.12749908 -9.80477905 12.18501282 C-9.80804085 5.99148364 -9.80804085 5.99148364 -7.85919189 3.34091187 C-5.20833124 0.99726268 -3.56101124 0.07122022 0 0 Z " fill="#E8EAF1" transform="translate(353.125,278.9375)"/>
<path d="M0 0 C0 36.63 0 73.26 0 111 C-5 110 -5 110 -6.79418945 108.54980469 C-8.69774666 104.52454624 -8.36692225 100.59685255 -8.29296875 96.203125 C-8.28872391 95.25435486 -8.28447906 94.30558472 -8.28010559 93.32806396 C-8.26333082 90.30175234 -8.22568056 87.2761099 -8.1875 84.25 C-8.17245162 82.19662421 -8.15876348 80.14323797 -8.14648438 78.08984375 C-8.11343117 73.05963852 -8.06165683 68.02993267 -8 63 C-9.31194336 63.02618408 -10.62388672 63.05236816 -11.97558594 63.0793457 C-16.84325098 63.16984847 -21.7108417 63.22724994 -26.57910156 63.2746582 C-28.68599961 63.29980212 -30.79281043 63.33392207 -32.89941406 63.37719727 C-35.9279532 63.43785368 -38.9553393 63.46621083 -41.984375 63.48828125 C-42.92617615 63.51408768 -43.86797729 63.5398941 -44.83831787 63.56648254 C-51.37145601 63.56928432 -51.37145601 63.56928432 -54.58691406 60.65698242 C-56.34954534 57.34276056 -56.76965109 55.69432521 -56 52 C-52.65458724 48.33942016 -50.45786244 46.71114358 -45.46337891 46.43237305 C-43.71757326 46.43315755 -41.97163113 46.46098944 -40.2265625 46.51171875 C-38.8409462 46.52233086 -38.8409462 46.52233086 -37.42733765 46.53315735 C-34.49238268 46.56102723 -31.55937307 46.62375112 -28.625 46.6875 C-26.62893391 46.71259248 -24.63283775 46.73540398 -22.63671875 46.75585938 C-17.75706904 46.81082961 -12.87886373 46.89705034 -8 47 C-8.02094727 45.71834961 -8.04189453 44.43669922 -8.06347656 43.11621094 C-8.13588666 38.36030249 -8.1818036 33.60444276 -8.21972656 28.84814453 C-8.23983969 26.78979295 -8.26713397 24.73149848 -8.30175781 22.67333984 C-8.35028883 19.71437487 -8.37297166 16.75616539 -8.390625 13.796875 C-8.41127014 12.87694763 -8.43191528 11.95702026 -8.45318604 11.00921631 C-8.45541136 4.67045976 -8.45541136 4.67045976 -6.22558594 1.38769531 C-4 0 -4 0 0 0 Z " fill="#FEFCFC" transform="translate(352,280)"/>
</svg>
